# xmcd
#
# Track frame offsets:
#	180
#	13274
#	25185
#	38798
#	53346
#	65683
#	82520
#	101470
#	111736
#	125968
#	141800
#	154824
#
# Disc length: 2293 seconds
#
# Revision: 0
# Processed by: cddbd v1.5.1PL0 Copyright (c) Steve Scherf et al.
# Submitted via: dBpowerAMP V4.0
#
DISCID=9d08f30c
DTITLE=Andy Weaver - Gravel Road
DYEAR=2004
DGENRE=Blues
TTITLE0=Revenue Man
TTITLE1=I Wish I Was In Heaven
TTITLE2=Shadow Factory
TTITLE3=Going To See The King
TTITLE4=One DIme
TTITLE5=Tom Rushen
TTITLE6=Gravel Road
TTITLE7=Jon The Revelator
TTITLE8=God Don't Ever Change
TTITLE9=Poor Boy
TTITLE10=Get Right Church
TTITLE11=Sitting On Top Of The World
EXTD=
EXTT0=
EXTT1=
EXTT2=
EXTT3=
EXTT4=
EXTT5=
EXTT6=
EXTT7=
EXTT8=
EXTT9=
EXTT10=
EXTT11=
PLAYORDER=
